<?xml version="1.0" encoding="UTF-8"?>
<svg id="Layer_2" data-name="Layer 2" xmlns="http://www.w3.org/2000/svg" viewBox="0 0 759.85 431.13">
  <defs>
    <style>
      .cls-1 {
        fill: #fff;
      }

      .cls-2 {
        fill: #054280;
      }
    </style>
  </defs>
  <g id="_16x9-white" data-name="16x9-white">
    <g>
      <path class="cls-1" d="M593.45,270.58c5.97.24,10.75.87,16.95,2.25-5.22,1.45-9.16,1.24-14.2,1.44l-12.94.52c-47.25,1.9-92.93,10.11-133.22,26.28l-19.38,7.78c13.62-14.58,45.63-25.89,70.06-30.85,30.31-6.16,61.3-8.67,92.73-7.42Z"/>
      <path class="cls-1" d="M476.28,239.08c42.47-9.47,89.4-11.56,134.92-7.03-9.47,1.6-18.56,1.26-27.94,1.52-25.85.73-50.56,2.73-75.41,6.37l-18.15,3.17c-24.92,5.16-47.81,11.63-69.52,19.88.89-2.07,2.44-3.12,4.63-4.44,14.28-8.51,31.5-15.01,51.47-19.47Z"/>
      <path class="cls-1" d="M576.08,315.27c11.53.19,22.45-.14,34.38,2.19-3.14,1.37-7.18.86-11.23,1.01l-26.05.99-7.83.47-6.92.77c-27.85,3.13-63.72,9.7-88.32,18.51l-29.48,10.56c3.92-4.88,10.39-8.4,17.48-11.51l11.04-4.84c28.79-12.63,72.27-18.71,106.93-18.15Z"/>
      <path class="cls-1" d="M452.22,150.01c-4.36,1.18-7.74,2.12-11.59,3.59-16.88,6.41-31.71,13.5-43.92,23.07-15.32,12-23.8,25.73-25.82,40.83l-1.62,12.14,10.92-7.19,8.45-4.76c8.52-4.81,19.32-7.33,30.73-9.97,1.01-9.97,6.79-18.61,16.71-26.39,17.07-13.39,42.31-20.57,70.29-21.97,18.41-.92,40.09,1.83,57.96,6.31-2.79,11.48-10.49,21.75-22.6,30.86-14.16,10.66-32.77,18.06-53.16,21.4-20.22,3.32-42.19,2.63-63.28-2.84-6.77,1.77-12.13,4.65-17.9,7.62-20.52,10.56-31.13,25.65-33.75,41.89-1.65,10.17,2.98,21.57,8.43,31.61,12.24,22.52,19.97,45.2,25.56,68.62,1.48,6.2,6.18,15.79,14.03,17.42,21.41-8.87,41.54-16.99,65.01-23.3,53.65-14.41,111.82-19.81,170.44-16.92l-7.69-59.47-8.6-72.07-1.5-10.95-22.99.77-14.25.66c-17.81.84-34.33,4.53-51.82,7.07,20.5-13.64,48.27-20.14,77.49-21.78l43.38.16,2.64,19.24.21,1.54,1.26,10.3,1.15,10.56.96,8.82,1.41,10.36,1.13,8.6,1.3,11.08,1.98,16.08,1.44,9.47,1.3,10.53,4.36,33.54,1.39,9.71,1.2,7.79,1.49,9.61-28.96-1.33-11.85-.43h-40.64l-14.26.6-16.11.82c-32.34,1.62-77.06,8.46-106.22,16.93-8.43,2.45-17.44,4.07-24.18,8.84,34.58-6.07,67.63-10.38,102.57-12.81l18.27-.85,19.9-.75,40.34.12c27.78.07,54.83,1.83,82.57,5.41l-7.9-43.9-5.45-33.09-4.77-30.23-1.48-10.91-5.08-36.82-1.3-9.85-.7-6.88,35.62,6.36,23.97,135.19,4.59,24.99,5.82,29.51.5,7.24c-57.88-8.9-116.34-13.16-175.9-12.02l-13.06.53-22.18.83-47.91,3.63-57.2,6.37c-6.83,9.12-19.07,15.27-35.22,17.7-30.52,4.58-75.13,2.34-88.24-16.62l-18.78-2.9c-63-7.57-118.11-11.62-182.81-8.94-29.19,1.21-57.18,3.33-85.57,7.03L.25,411.65l25.87-197.68,35.79-5.39-4.86,47.82-1.25,11.92-1.11,11.42-1.28,11.99-1.36,12.27-2.1,18.86-1.25,11.24-.99,7.41-2.17,19.56-2.67,19.13,28.72-2.95,25.99-1.75,21.88-.77,37.44-.06,27.32.96c31.45,1.1,61.43,4.66,91.7,9.06l34.66,5.05c-3.45-2.03-6.07-3.03-9.98-4.21-43.57-13.17-91.18-20.81-140.04-23.23l-10.98-.4-19.61-.41-36.14.61-14.27.74-7.85.49c-3.15.19-6.01.32-9,.11l15.69-157.5,1.92-19.24c45.83-3.35,90.93.24,124.04,20.82-22.2-2.85-42.21-6.69-63.81-7.16l-28.33-.63-5.9,56.63-.92,8.95-.99,12.29-4.07,43.83-2.35,20.6,47.71-.42c51.54,1.48,101.46,8.98,146.92,24.38l11.23,4.07,9.4,3.13,16.88,6.09,11.3,3.14c3.64-1.72,6.63-3.97,8.74-6.33,25.41-28.52,10.33-54.32-5.42-83.43-7.9-14.6-10.22-29.3-11.79-44.54-.87-8.53-5.58-16.42-14.64-23.03l-8.6-3.99c-11.97.95-23.08.93-33.41-.46l-9.81-1.79c-8.44-1.98-16.35-5.04-23.77-9.43l-7.68-4.54c-16.17-11.32-25.24-25.38-28.14-40.58,33.76-6.74,69.55-3.11,94.05,12.64,15.3,9.83,23.78,24.69,18.7,37.82,6.19,2.83,11.1,5.83,17.07,10.03l4.49-19.6c2.12-9.26,10.38-17.38,14.64-26.09,1.02-9.76-8.73-19.31-15.22-27.83l-14.96.08c-61.67-4.72-99.93-47.61-92.12-84.29,17.36.76,34.02,2.15,50.29,5.83,43.8,9.91,76.13,32.28,73.67,61.26l-3.47,11.84,13.43,16.36c8.68-13.78,19.48-25.92,32.85-38.21-31.92-30.52-18.76-67.32,22.96-91.96,17.26-10.18,37.28-18.3,59.77-23.75L525.14.25c6.38,12.73,9.57,24.95,11.23,37.91l-1.07,13.08c-1.99,24.44-20.97,49.49-54.11,64.07-19.17,8.43-45.29,13.78-69.12,13.13-9.34,11.19-16.36,22.68-21.34,34.12,21.32-10.99,45.84-17.35,73.81-15.89l-12.32,3.34Z"/>
      <path class="cls-2" d="M266.5,218.85l9.81,1.79c-3.35-.45-6.62-1.04-9.81-1.79Z"/>
      <path class="cls-1" d="M172.13,313.68c20.85-.23,40.78.81,61.06,3.71,24.45,3.5,47.76,8.57,69,16.69,10.69,4.08,20.76,8.36,27.6,14.69l-9.99-3.71-24.96-7.98c-43.33-11.91-89.56-18.53-137.16-19.76l-21.73-.95c12.25-2.7,23.73-2.55,36.18-2.69Z"/>
      <path class="cls-1" d="M167.58,230.39l-20.57-1.28c6.16-1.21,11.37-2.18,17.11-2.17l26.84.06c13.52.04,26.25,1.81,39.45,3.69,15.5,2.21,29.38,5.98,43.53,10.34,12.55,4.68,24.4,9.79,33.1,18.1-14.45-5.44-28.4-11.06-44.47-15.24-30.44-7.91-61.9-12.37-94.99-13.5Z"/>
      <path class="cls-1" d="M164.13,268.68c32.59-1.25,65.11,1.8,95.71,8.94,20.46,4.77,39.69,11.63,53.4,22.6-38.91-15.08-80.53-24.48-126.46-27.29l-27.98-1.33-13.59-.59c6.46-1.56,12.25-2.07,18.92-2.33Z"/>
    </g>
  </g>
</svg>