<?xml version="1.0" encoding="UTF-8"?>
<svg id="Layer_2" data-name="Layer 2" xmlns="http://www.w3.org/2000/svg" viewBox="0 0 759.35 430.62">
  <defs>
    <style>
      .cls-1 {
        fill: #4b9265;
      }

      .cls-2 {
        fill: #fefefe;
      }
    </style>
  </defs>
  <g id="Layer_2-2" data-name="Layer 2">
    <g id="_16x9_green" data-name="16x9 green">
      <path class="cls-2" d="M443.11,410.9l57.2-6.36,47.91-3.63,22.18-.84,13.06-.53c59.56-1.14,118.02,3.13,175.89,12.02l-.5-7.24-5.81-29.51-4.59-24.99-23.97-135.19-35.63-6.36.7,6.87,1.3,9.86,5.08,36.81,1.48,10.91,4.77,30.24,5.46,33.08,7.9,43.9c-27.74-3.58-54.79-5.33-82.57-5.41l-40.35-.11-19.9.75-18.27.85c-34.94,2.43-67.98,6.74-102.57,12.8,6.74-4.77,15.75-6.39,24.18-8.84,29.17-8.48,73.89-15.31,106.22-16.94l16.12-.81,14.25-.6h40.65s11.85.42,11.85.42l28.96,1.33-1.49-9.61-1.2-7.79-1.39-9.71-4.36-33.55-1.3-10.53-1.44-9.47-1.98-16.07-1.3-11.08-1.13-8.61-1.41-10.35-.97-8.83-1.15-10.55-1.26-10.3-2.85-20.78-43.38-.16c-29.22,1.64-56.99,8.14-77.49,21.78,17.49-2.55,34.01-6.24,51.82-7.07l14.25-.67,22.99-.77,1.5,10.95,8.6,72.07,7.69,59.47c-58.61-2.89-116.79,2.51-170.44,16.92-23.47,6.3-43.6,14.43-65.01,23.29-7.85-1.63-12.55-11.22-14.03-17.42-5.59-23.41-13.32-46.1-25.56-68.62-5.46-10.04-10.08-21.44-8.43-31.61,2.62-16.24,13.23-31.33,33.75-41.89,5.77-2.97,11.13-5.85,17.89-7.62,42.36,10.99,88.25,2.66,116.45-18.57,12.1-9.11,19.8-19.37,22.59-30.86-17.86-4.48-39.54-7.24-57.95-6.31-27.98,1.4-53.22,8.58-70.29,21.97-9.92,7.78-15.69,16.42-16.71,26.39-11.41,2.64-22.21,5.16-30.73,9.97l-8.45,4.76-10.92,7.19,1.62-12.14c2.01-15.09,10.49-28.83,25.81-40.83,12.21-9.57,27.05-16.66,43.92-23.07,3.85-1.46,7.23-2.4,11.58-3.58l12.32-3.34c-27.97-1.46-52.49,4.9-73.81,15.89,4.98-11.43,12-22.92,21.33-34.12,23.83.65,49.95-4.7,69.12-13.13,33.14-14.58,52.12-39.63,54.12-64.07l1.07-13.07c-1.67-12.96-4.85-25.19-11.24-37.91l-42.08,8.18c-22.49,5.45-42.51,13.57-59.76,23.75-41.73,24.63-54.88,61.44-22.96,91.96-13.37,12.29-24.17,24.43-32.85,38.21l-13.43-16.36,3.46-11.84c2.46-28.98-29.87-51.35-73.67-61.26-16.27-3.68-32.93-5.07-50.29-5.83-7.81,36.68,30.45,79.57,92.12,84.29l14.96-.09c6.49,8.52,16.25,18.07,15.22,27.83-4.26,8.71-12.52,16.83-14.64,26.09l-4.49,19.61c-5.97-4.21-10.88-7.21-17.07-10.03,5.08-13.14-3.39-27.99-18.69-37.82-24.5-15.75-60.3-19.38-94.05-12.64,2.9,15.2,11.97,29.27,28.14,40.58l7.69,4.54c18.9,11.17,40.87,13.76,66.99,11.68l8.6,4c9.06,6.6,13.76,14.5,14.64,23.03,1.56,15.24,3.89,29.94,11.79,44.54,15.75,29.11,30.83,54.9,5.42,83.43-2.11,2.36-5.1,4.62-8.74,6.33l-11.3-3.14-16.89-6.1-9.4-3.13-11.23-4.07c-45.46-15.4-95.38-22.9-146.92-24.38l-47.71.43,2.35-20.6,4.07-43.83.99-12.29.92-8.95,5.91-56.63,28.33.63c21.6.48,41.61,4.31,63.81,7.16-33.11-20.58-78.21-24.17-124.04-20.82l-17.61,176.74c3,.21,5.85.08,9-.12l7.86-.49,14.26-.73,36.15-.62,19.6.41,10.98.4c48.86,2.42,96.47,10.06,140.04,23.23,3.9,1.18,6.53,2.19,9.98,4.21l-34.66-5.04c-30.27-4.4-60.25-7.96-91.7-9.07l-27.32-.96-37.45.07-21.88.77-25.99,1.75-28.73,2.95,2.67-19.14,2.18-19.56.99-7.41,1.25-11.24,2.1-18.85,1.37-12.27,1.27-11.99,1.12-11.41,1.25-11.92,4.86-47.83-35.79,5.39L0,411.4l32.48-4.23c28.39-3.7,56.38-5.83,85.57-7.03,64.7-2.68,119.82,1.37,182.81,8.94l18.79,2.91c13.11,18.96,57.72,21.2,88.24,16.61,16.15-2.42,28.39-8.57,35.22-17.7Z"/>
      <path class="cls-2" d="M489.46,242.86l18.15-3.17c24.85-3.64,49.56-5.64,75.41-6.37,9.38-.26,18.47.08,27.94-1.52-45.53-4.53-92.46-2.44-134.92,7.03-19.98,4.46-37.19,10.96-51.47,19.47-2.2,1.31-3.75,2.36-4.63,4.43,21.71-8.24,44.6-14.71,69.52-19.88Z"/>
      <path class="cls-2" d="M582.52,274.26l13.2-.4c5.14-.16,9.16.04,14.49-1.2-6.32-1.24-11.19-1.81-17.28-2.04-32.07-1.22-63.7.86-94.66,6.14-24.96,4.25-57.67,14.03-71.63,26.75l19.81-6.74c41.19-14.01,87.84-21.03,136.07-22.51Z"/>
      <path class="cls-2" d="M319.55,344.81l10,3.71c-6.84-6.33-16.91-10.6-27.61-14.69-21.24-8.11-44.55-13.18-69-16.68-20.28-2.9-40.2-3.94-61.05-3.71-12.45.14-23.93,0-36.19,2.69l21.74.95c47.59,1.24,93.83,7.85,137.16,19.76l24.96,7.98Z"/>
      <path class="cls-2" d="M562.98,319.96l8.4-.85,9.51-.51,31.63-1.08c4.92-.17,9.83.4,13.64-1.11-14.49-2.55-27.74-2.19-41.74-2.39-42.09-.61-94.88,6.03-129.85,19.84l-13.4,5.29c-8.62,3.4-16.47,7.25-21.23,12.58l35.8-11.54c29.87-9.63,73.42-16.81,107.24-20.23Z"/>
      <path class="cls-1" d="M443.11,410.9c-6.83,9.13-19.07,15.28-35.22,17.7-30.52,4.58-75.13,2.35-88.24-16.61l-18.79-2.91c-62.99-7.57-118.11-11.62-182.81-8.94-29.18,1.21-57.17,3.34-85.57,7.03l-32.48,4.23,25.87-197.68,35.79-5.39-4.86,47.83-1.25,11.92-1.12,11.41-1.27,11.99-1.37,12.27-2.1,18.85-1.25,11.24-.99,7.41-2.18,19.56-2.67,19.14,28.73-2.95,25.99-1.75,21.88-.77,37.45-.07,27.32.96c31.45,1.11,61.43,4.66,91.7,9.07l34.66,5.04c-3.45-2.02-6.08-3.03-9.98-4.21-43.57-13.17-91.19-20.81-140.04-23.23l-10.98-.4-19.6-.41-36.15.62-14.26.73-7.86.49c-3.14.2-6,.32-9,.12l17.61-176.74c45.83-3.35,90.93.24,124.04,20.82-22.19-2.85-42.21-6.68-63.81-7.16l-28.33-.63-5.91,56.63-.92,8.95-.99,12.29-4.07,43.83-2.35,20.6,47.71-.43c51.54,1.48,101.46,8.99,146.92,24.38l11.23,4.07,9.4,3.13,16.89,6.1,11.3,3.14c3.64-1.72,6.63-3.97,8.74-6.33,25.41-28.52,10.33-54.32-5.42-83.43-7.9-14.6-10.22-29.3-11.79-44.54-.88-8.53-5.58-16.43-14.64-23.03l-8.6-4c-26.13,2.08-48.1-.5-66.99-11.68l-7.69-4.54c-16.17-11.31-25.24-25.38-28.14-40.58,33.76-6.73,69.55-3.11,94.05,12.64,15.3,9.83,23.77,24.69,18.69,37.82,6.19,2.82,11.11,5.83,17.07,10.03l4.49-19.61c2.12-9.25,10.38-17.38,14.64-26.09,1.03-9.76-8.73-19.31-15.22-27.83l-14.96.09c-61.67-4.72-99.92-47.61-92.12-84.29,17.36.76,34.02,2.14,50.29,5.83,43.8,9.91,76.13,32.28,73.67,61.26l-3.46,11.84,13.43,16.36c8.68-13.78,19.48-25.92,32.85-38.21-31.92-30.52-18.76-67.32,22.96-91.96,17.25-10.18,37.27-18.3,59.76-23.75l42.08-8.18c6.39,12.73,9.57,24.95,11.24,37.91l-1.07,13.07c-2,24.44-20.97,49.49-54.12,64.07-19.17,8.43-45.29,13.78-69.12,13.13-9.33,11.2-16.35,22.69-21.33,34.12,21.32-10.99,45.84-17.35,73.81-15.89l-12.32,3.34c-4.35,1.18-7.74,2.12-11.58,3.58-16.88,6.41-31.71,13.51-43.92,23.07-15.32,12-23.8,25.74-25.81,40.83l-1.62,12.14,10.92-7.19,8.45-4.76c8.52-4.81,19.32-7.33,30.73-9.97,1.02-9.98,6.79-18.61,16.71-26.39,17.07-13.39,42.31-20.57,70.29-21.97,18.41-.92,40.09,1.83,57.95,6.31-2.79,11.48-10.49,21.75-22.59,30.86-28.2,21.23-74.09,29.56-116.45,18.57-6.76,1.77-12.13,4.65-17.89,7.62-20.52,10.56-31.13,25.65-33.75,41.89-1.64,10.17,2.98,21.57,8.43,31.61,12.24,22.52,19.96,45.2,25.56,68.62,1.48,6.2,6.18,15.79,14.03,17.42,21.41-8.87,41.54-16.99,65.01-23.29,53.65-14.41,111.83-19.81,170.44-16.92l-7.69-59.47-8.6-72.07-1.5-10.95-22.99.77-14.25.67c-17.81.83-34.33,4.52-51.82,7.07,20.5-13.64,48.27-20.14,77.49-21.78l43.38.16,2.85,20.78,1.26,10.3,1.15,10.55.97,8.83,1.41,10.35,1.13,8.61,1.3,11.08,1.98,16.07,1.44,9.47,1.3,10.53,4.36,33.55,1.39,9.71,1.2,7.79,1.49,9.61-28.96-1.33-11.85-.42h-40.65s-14.25.6-14.25.6l-16.12.81c-32.33,1.63-77.05,8.46-106.22,16.94-8.43,2.45-17.44,4.07-24.18,8.84,34.58-6.07,67.63-10.38,102.57-12.8l18.27-.85,19.9-.75,40.35.11c27.78.08,54.83,1.83,82.57,5.41l-7.9-43.9-5.46-33.08-4.77-30.24-1.48-10.91-5.08-36.81-1.3-9.86-.7-6.87,35.63,6.36,23.97,135.19,4.59,24.99,5.81,29.51.5,7.24c-57.88-8.9-116.34-13.16-175.89-12.02l-13.06.53-22.18.84-47.91,3.63-57.2,6.36Z"/>
      <path class="cls-1" d="M489.46,242.86c-24.92,5.17-47.81,11.64-69.52,19.88.88-2.07,2.43-3.12,4.63-4.43,14.28-8.51,31.49-15.01,51.47-19.47,42.46-9.47,89.39-11.56,134.92-7.03-9.48,1.6-18.56,1.26-27.94,1.52-25.85.73-50.56,2.72-75.41,6.37l-18.15,3.17Z"/>
      <path class="cls-1" d="M583.02,274.54c-47.25,1.9-92.94,10.11-133.23,26.28l-19.38,7.78c13.62-14.58,45.63-25.88,70.06-30.85,30.31-6.16,61.3-8.67,92.73-7.42,5.96.24,10.74.87,16.94,2.25-5.22,1.45-9.16,1.23-14.2,1.43l-12.94.52Z"/>
      <path class="cls-1" d="M306.8,258.88c-14.45-5.44-28.4-11.06-44.47-15.24-30.44-7.92-61.91-12.37-95-13.51l-20.57-1.28c6.16-1.21,11.37-2.19,17.11-2.17l26.84.06c13.52.03,26.25,1.8,39.45,3.68,15.5,2.21,29.39,5.98,43.53,10.34,12.55,4.68,24.4,9.79,33.1,18.11Z"/>
      <path class="cls-1" d="M558.18,320.45c-27.85,3.13-63.72,9.7-88.31,18.51l-29.48,10.56c3.92-4.87,10.39-8.39,17.48-11.51l11.04-4.84c28.8-12.63,72.27-18.71,106.93-18.15,11.53.19,22.45-.14,34.38,2.19-3.14,1.37-7.18.86-11.23,1.01l-26.05.99-7.83.47-6.92.78Z"/>
      <path class="cls-1" d="M186.54,272.68l-27.98-1.33-13.59-.6c6.46-1.55,12.26-2.07,18.93-2.32,32.59-1.25,65.11,1.8,95.71,8.94,20.46,4.77,39.68,11.63,53.4,22.6-38.91-15.08-80.53-24.47-126.46-27.28Z"/>
      <path class="cls-1" d="M319.55,344.81l-24.96-7.98c-43.33-11.92-89.57-18.53-137.16-19.76l-21.74-.95c12.25-2.7,23.73-2.55,36.19-2.69,20.85-.23,40.78.81,61.05,3.71,24.45,3.5,47.76,8.57,69,16.68,10.7,4.09,20.76,8.36,27.61,14.69l-10-3.71Z"/>
    </g>
  </g>
</svg>