<?xml version="1.0" encoding="UTF-8"?>
<svg id="Layer_2" data-name="Layer 2" xmlns="http://www.w3.org/2000/svg" viewBox="0 0 759.35 430.63">
  <defs>
    <style>
      .cls-1 {
        fill: #fff;
      }

      .cls-2 {
        fill: #7ab842;
      }
    </style>
  </defs>
  <g id="_16x9-chartreuse-w-white" data-name="16x9-chartreuse-w-white">
    <g>
      <path class="cls-1" d="M707.63,336.05l7.9,43.9c-27.74-3.58-54.79-5.34-82.57-5.41l-40.34-.12-19.9.75-18.27.85c-34.94,2.43-67.99,6.74-102.57,12.81,6.74-4.77,15.75-6.39,24.18-8.84,29.16-8.47,73.88-15.31,106.22-16.93l16.11-.82,14.26-.6h40.64l11.85.43,28.96,1.33-1.49-9.61-1.2-7.79-1.39-9.71-4.36-33.54-1.3-10.53-1.44-9.47-1.98-16.08-1.3-11.08-1.13-8.6-1.41-10.36-.96-8.82-1.15-10.56-1.26-10.3-.21-1.54,15.33,2.86.7,6.88,1.3,9.85,5.08,36.82,1.48,10.91,4.77,30.23,5.45,33.09Z"/>
      <path class="cls-1" d="M649.17,282.31l7.69,59.47c-58.62-2.89-116.79,2.51-170.44,16.92-23.47,6.31-43.6,14.43-65.01,23.3-7.85-1.63-12.55-11.22-14.03-17.42-5.59-23.42-13.32-46.1-25.56-68.62-5.45-10.04-10.08-21.44-8.43-31.61,2.62-16.24,13.23-31.33,33.75-41.89,5.77-2.97,11.13-5.85,17.9-7.62,21.09,5.47,43.06,6.16,63.28,2.84l61.69-9.89c17.49-2.54,34.01-6.23,51.82-7.07l14.25-.66,22.99-.77,1.5,10.95,8.6,72.07ZM598.98,318.22c4.05-.15,8.09.36,11.23-1.01-11.93-2.33-22.85-2-34.38-2.19-34.66-.56-78.14,5.52-106.93,18.15l-11.04,4.84c-7.09,3.11-13.56,6.63-17.48,11.51l29.48-10.56c24.6-8.81,60.47-15.38,88.32-18.51l6.92-.77,7.83-.47,26.05-.99ZM595.95,274.02c5.04-.2,8.98.01,14.2-1.44-6.2-1.38-10.98-2.01-16.95-2.25-31.43-1.25-62.42,1.26-92.73,7.42-24.43,4.96-56.44,16.27-70.06,30.85l19.38-7.78c40.29-16.17,85.97-24.38,133.22-26.28l12.94-.52ZM583.01,233.32c9.38-.26,18.47.08,27.94-1.52-45.52-4.53-92.45-2.44-134.92,7.03-19.97,4.46-37.19,10.96-51.47,19.47-2.19,1.32-3.74,2.37-4.63,4.44,21.71-8.25,44.6-14.72,69.52-19.88l18.15-3.17c24.85-3.64,49.56-5.64,75.41-6.37Z"/>
      <path class="cls-1" d="M160.31,362.05c48.86,2.42,96.47,10.06,140.04,23.23,3.91,1.18,6.53,2.18,9.98,4.21l-34.66-5.05c-30.27-4.4-60.25-7.96-91.7-9.06l-27.32-.96-37.44.06-21.88.77-25.99,1.75-28.72,2.95,2.67-19.13,2.17-19.56.99-7.41,1.25-11.24,2.1-18.86,1.36-12.27,1.28-11.99,1.11-11.42,1.25-11.92,4.86-47.82,16.49-2.64-15.69,157.5c2.99.21,5.85.08,9-.11l7.85-.49,14.27-.74,36.14-.61,19.61.41,10.98.4Z"/>
      <path class="cls-1" d="M344.5,292.41c15.75,29.11,30.83,54.91,5.42,83.43-2.11,2.36-5.1,4.61-8.74,6.33l-11.3-3.14-16.88-6.09-9.4-3.13-11.23-4.07c-45.46-15.4-95.38-22.9-146.92-24.38l-47.71.42,2.35-20.6,4.07-43.83.99-12.29.92-8.95,5.9-56.63,28.33.63c21.6.47,41.61,4.31,63.81,7.16l62.14,11.33c3.19.75,6.46,1.34,9.81,1.79,10.33,1.39,21.44,1.41,33.41.46l8.6,3.99c9.06,6.61,13.77,14.5,14.64,23.03,1.57,15.24,3.89,29.94,11.79,44.54ZM319.55,344.81l9.99,3.71c-6.84-6.33-16.91-10.61-27.6-14.69-21.24-8.12-44.55-13.19-69-16.69-20.28-2.9-40.21-3.94-61.06-3.71-12.45.14-23.93,0-36.18,2.69l21.73.95c47.6,1.23,93.83,7.85,137.16,19.76l24.96,7.98ZM262.32,243.64c16.07,4.18,30.02,9.8,44.47,15.24-8.7-8.31-20.55-13.42-33.1-18.1-14.15-4.36-28.03-8.13-43.53-10.34-13.2-1.88-25.93-3.65-39.45-3.69l-26.84-.06c-5.74-.01-10.95.96-17.11,2.17l20.57,1.28c33.09,1.13,64.55,5.59,94.99,13.5ZM312.99,299.97c-13.71-10.97-32.94-17.83-53.4-22.6-30.6-7.14-63.12-10.19-95.71-8.94-6.67.26-12.46.77-18.92,2.33l13.59.59,27.98,1.33c45.93,2.81,87.55,12.21,126.46,27.29Z"/>
      <path class="cls-2" d="M593.2,270.33c5.97.24,10.75.87,16.95,2.25-5.22,1.45-9.16,1.24-14.2,1.44l-12.94.52c-47.25,1.9-92.93,10.11-133.22,26.28l-19.38,7.78c13.62-14.58,45.63-25.89,70.06-30.85,30.31-6.16,61.3-8.67,92.73-7.42Z"/>
      <path class="cls-2" d="M476.03,238.83c42.47-9.47,89.4-11.56,134.92-7.03-9.47,1.6-18.56,1.26-27.94,1.52-25.85.73-50.56,2.73-75.41,6.37l-18.15,3.17c-24.92,5.16-47.81,11.63-69.52,19.88.89-2.07,2.44-3.12,4.63-4.44,14.28-8.51,31.5-15.01,51.47-19.47Z"/>
      <path class="cls-2" d="M575.83,315.02c11.53.19,22.45-.14,34.38,2.19-3.14,1.37-7.18.86-11.23,1.01l-26.05.99-7.83.47-6.92.77c-27.85,3.13-63.72,9.7-88.32,18.51l-29.48,10.56c3.92-4.88,10.39-8.4,17.48-11.51l11.04-4.84c28.79-12.63,72.27-18.71,106.93-18.15Z"/>
      <path class="cls-2" d="M78.15,205.69l1.92-19.24c45.83-3.35,90.93.24,124.04,20.82-22.2-2.85-42.21-6.69-63.81-7.16l-28.33-.63-5.9,56.63-.92,8.95-.99,12.29-4.07,43.83-2.35,20.6,47.71-.42c51.54,1.48,101.46,8.98,146.92,24.38l11.23,4.07,9.4,3.13,16.88,6.09,11.3,3.14c3.64-1.72,6.63-3.97,8.74-6.33,25.41-28.52,10.33-54.32-5.42-83.43-7.9-14.6-10.22-29.3-11.79-44.54-.87-8.53-5.58-16.42-14.64-23.03l-8.6-3.99c-11.97.95-23.08.93-33.41-.46l-9.81-1.79c-8.44-1.98-16.35-5.04-23.77-9.43l-7.68-4.54c-16.17-11.32-25.24-25.38-28.14-40.58,33.76-6.74,69.55-3.11,94.05,12.64,15.3,9.83,23.78,24.69,18.7,37.82,6.19,2.83,11.1,5.83,17.07,10.03l4.49-19.6c2.12-9.26,10.38-17.38,14.64-26.09,1.02-9.76-8.73-19.31-15.22-27.83l-14.96.08c-61.67-4.72-99.93-47.61-92.12-84.29,17.36.76,34.02,2.15,50.29,5.83,43.8,9.91,76.13,32.28,73.67,61.26l-3.47,11.84,13.43,16.36c8.68-13.78,19.48-25.92,32.85-38.21-31.92-30.52-18.76-67.32,22.96-91.96,17.26-10.18,37.28-18.3,59.77-23.75l42.08-8.18c6.38,12.73,9.57,24.95,11.23,37.91l-1.07,13.08c-1.99,24.44-20.97,49.49-54.11,64.07-19.17,8.43-45.29,13.78-69.12,13.13-9.34,11.19-16.36,22.68-21.34,34.12,21.32-10.99,45.84-17.35,73.81-15.89l-12.32,3.34c-4.36,1.18-7.74,2.12-11.59,3.59-16.88,6.41-31.71,13.5-43.92,23.07-15.32,12-23.8,25.73-25.82,40.83l-1.62,12.14,10.92-7.19,8.45-4.76c8.52-4.81,19.32-7.33,30.73-9.97,1.01-9.97,6.79-18.61,16.71-26.39,17.07-13.39,42.31-20.57,70.29-21.97,18.41-.92,40.09,1.83,57.96,6.31-2.79,11.48-10.49,21.75-22.6,30.86-14.16,10.66-32.77,18.06-53.16,21.4-20.22,3.32-42.19,2.63-63.28-2.84-6.77,1.77-12.13,4.65-17.9,7.62-20.52,10.56-31.13,25.65-33.75,41.89-1.65,10.17,2.98,21.57,8.43,31.61,12.24,22.52,19.97,45.2,25.56,68.62,1.48,6.2,6.18,15.79,14.03,17.42,21.41-8.87,41.54-16.99,65.01-23.3,53.65-14.41,111.82-19.81,170.44-16.92l-7.69-59.47-8.6-72.07-1.5-10.95-22.99.77-14.25.66c-17.81.84-34.33,4.53-51.82,7.07,20.5-13.64,48.27-20.14,77.49-21.78l43.38.16,2.64,19.24.21,1.54,1.26,10.3,1.15,10.56.96,8.82,1.41,10.36,1.13,8.6,1.3,11.08,1.98,16.08,1.44,9.47,1.3,10.53,4.36,33.54,1.39,9.71,1.2,7.79,1.49,9.61-28.96-1.33-11.85-.43h-40.64l-14.26.6-16.11.82c-32.34,1.62-77.06,8.46-106.22,16.93-8.43,2.45-17.44,4.07-24.18,8.84,34.58-6.07,67.63-10.38,102.57-12.81l18.27-.85,19.9-.75,40.34.12c27.78.07,54.83,1.83,82.57,5.41l-7.9-43.9-5.45-33.09-4.77-30.23-1.48-10.91-5.08-36.82-1.3-9.85-.7-6.88,35.62,6.36,23.97,135.19,4.59,24.99,5.82,29.51.5,7.24c-57.88-8.9-116.34-13.16-175.9-12.02l-13.06.53-22.18.83-47.91,3.63-57.2,6.37c-6.83,9.12-19.07,15.27-35.22,17.7-30.52,4.58-75.13,2.34-88.24-16.62l-18.78-2.9c-63-7.57-118.11-11.62-182.81-8.94-29.19,1.21-57.18,3.33-85.57,7.03l-32.48,4.23,25.87-197.68,35.79-5.39-4.86,47.82-1.25,11.92-1.11,11.42-1.28,11.99-1.36,12.27-2.1,18.86-1.25,11.24-.99,7.41-2.17,19.56-2.67,19.13,28.72-2.95,25.99-1.75,21.88-.77,37.44-.06,27.32.96c31.45,1.1,61.43,4.66,91.7,9.06l34.66,5.05c-3.45-2.03-6.07-3.03-9.98-4.21-43.57-13.17-91.18-20.81-140.04-23.23l-10.98-.4-19.61-.41-36.14.61-14.27.74-7.85.49c-3.15.19-6.01.32-9,.11l15.69-157.5Z"/>
      <path class="cls-2" d="M266.25,218.6l9.81,1.79c-3.35-.45-6.62-1.04-9.81-1.79Z"/>
      <path class="cls-2" d="M171.88,313.43c20.85-.23,40.78.81,61.06,3.71,24.45,3.5,47.76,8.57,69,16.69,10.69,4.08,20.76,8.36,27.6,14.69l-9.99-3.71-24.96-7.98c-43.33-11.91-89.56-18.53-137.16-19.76l-21.73-.95c12.25-2.7,23.73-2.55,36.18-2.69Z"/>
      <path class="cls-2" d="M167.33,230.14l-20.57-1.28c6.16-1.21,11.37-2.18,17.11-2.17l26.84.06c13.52.04,26.25,1.81,39.45,3.69,15.5,2.21,29.38,5.98,43.53,10.34,12.55,4.68,24.4,9.79,33.1,18.1-14.45-5.44-28.4-11.06-44.47-15.24-30.44-7.91-61.9-12.37-94.99-13.5Z"/>
      <path class="cls-2" d="M163.88,268.43c32.59-1.25,65.11,1.8,95.71,8.94,20.46,4.77,39.69,11.63,53.4,22.6-38.91-15.08-80.53-24.48-126.46-27.29l-27.98-1.33-13.59-.59c6.46-1.56,12.25-2.07,18.92-2.33Z"/>
    </g>
  </g>
</svg>