<?xml version="1.0" encoding="UTF-8"?>
<svg id="Layer_2" data-name="Layer 2" xmlns="http://www.w3.org/2000/svg" viewBox="0 0 405.43 395.04">
  <defs>
    <style>
      .cls-1 {
        fill: #fff;
      }

      .cls-2 {
        fill: #499265;
      }
    </style>
  </defs>
  <g id="_1x1-green-w-white" data-name="1x1-green-w-white">
    <path class="cls-1" d="M85.6,332.13c26.08,2.22,51.5,9.23,74.77,21.31,2.08,1.09,3.48,2.01,5.33,3.87l-18.51-4.63c-16.16-4.04-32.17-7.31-48.96-8.32l-14.59-.88-19.99.06-11.68.71-13.87,1.6-15.34,2.71,1.42-17.56,1.17-17.94.52-6.8.67-10.31,1.12-17.3.73-11.26.68-11,.6-10.47.66-10.93,2.6-43.88,8.79-2.19-8.37,144.26c1.6.19,3.13.08,4.81-.1l4.19-.45,7.62-.68,19.3-.56,10.46.37,5.87.37Z"/>
    <path class="cls-1" d="M183.94,268.25c8.41,26.7,16.46,50.37,2.89,76.53-1.12,2.17-2.72,4.24-4.66,5.81l-6.03-2.88-9.02-5.59-5.02-2.87-6-3.73c-24.27-14.13-50.92-21.01-78.44-22.37l-25.47.39,1.25-18.9,2.18-40.21.52-11.27.5-8.21,3.15-51.96,15.12.58c11.54.44,22.22,3.95,34.07,6.57l35.07,11.09.62.2c6.28,1.98,13.11,2.19,20.57,1.17l4.59,3.66c4.83,6.06,7.35,13.3,7.81,21.13.84,13.98,2.08,27.47,6.3,40.86ZM170.62,316.32l5.33,3.4c-3.65-5.81-9.03-9.73-14.74-13.48-11.34-7.44-23.78-12.09-36.84-15.3-10.82-2.67-21.46-3.62-32.59-3.41-6.65.13-12.78,0-19.33,2.47l11.61.87c25.41,1.13,50.1,7.2,73.23,18.13l13.33,7.32ZM163.81,237.49c-4.65-7.63-10.98-12.31-17.68-16.61-7.55-4-14.96-7.46-23.24-9.48-7.05-1.73-13.85-3.35-21.06-3.38l-14.34-.06c-3.06-.02-5.84.88-9.13,1.99l10.98,1.17c17.67,1.04,34.47,5.13,50.72,12.39,8.58,3.83,16.03,8.99,23.75,13.98ZM167.12,275.18c-7.33-10.06-17.59-16.36-28.51-20.73-16.34-6.55-33.71-9.35-51.1-8.2-3.57.23-6.66.71-10.11,2.13l7.26.55,14.94,1.22c24.52,2.58,46.74,11.2,67.52,25.03Z"/>
    <path class="cls-1" d="M377.82,308.28l4.22,40.27c-14.81-3.28-29.26-4.89-44.09-4.96l-21.54-.11-10.62.69-9.76.78c-18.65,2.23-36.3,6.19-54.76,11.75,3.6-4.38,8.41-5.86,12.91-8.11,15.57-7.77,39.45-14.04,56.71-15.53l8.61-.75,7.6-.55h21.71l6.32.39,15.47,1.22-.8-8.81-.64-7.15-.74-8.9-2.33-30.78-.7-9.66-.76-8.69-1.06-14.74-.69-10.17-.61-7.89-.75-9.5-.52-8.1-.61-9.68-.67-9.45-.12-1.49,8.19,2.7.37,6.31.7,9.04,2.71,33.77.79,10.01,2.55,27.74,2.91,30.35Z"/>
    <path class="cls-1" d="M346.61,258.98l4.1,54.56c-31.29-2.65-62.36,2.3-91,15.52-12.53,5.79-23.28,13.24-34.71,21.37-4.19-1.49-6.7-10.29-7.49-15.98-2.99-21.48-7.11-42.29-13.64-62.95-2.92-9.21-5.39-19.66-4.51-29,1.4-14.89,7.07-28.74,18.02-38.42,3.08-2.72,5.95-5.37,9.56-6.99,11.19,4.99,22.84,5.64,33.59,2.66l.1-.03,33.03-9.1c9.34-2.33,18.16-5.72,27.67-6.48l7.61-.62,12.28-.7.79,10.04,4.6,66.12ZM327.04,291.28c2.62-.15,5.24.37,7.28-1.01-7.74-2.34-14.81-2.01-22.29-2.2-22.47-.56-50.66,5.54-69.33,18.2l-7.15,4.86c-4.6,3.12-8.79,6.65-11.34,11.54l19.12-10.59c15.94-8.83,39.2-15.42,57.25-18.56l4.49-.78,5.08-.47,16.89-.99ZM318.07,251.22c2.74-.14,4.89.05,7.73-1.1-3.37-1.13-5.97-1.65-9.22-1.87-17.12-1.11-34.01.8-50.54,5.63-13.33,3.91-30.79,12.88-38.25,24.54l10.58-6.18c21.99-12.85,46.9-19.29,72.65-20.64l7.05-.38ZM311.28,214.04c5.01-.24,9.86.08,14.92-1.39-24.31-4.16-49.36-2.24-72.03,6.45-10.67,4.09-19.86,10.05-27.48,17.86-1.18,1.2-2,2.17-2.48,4.06,11.59-7.56,23.82-13.49,37.12-18.23l9.69-2.91c13.27-3.34,26.46-5.17,40.26-5.84Z"/>
    <path class="cls-2" d="M405.16,370.91l.27,6.64c-30.9-8.16-62.11-12.07-93.91-11.03l-6.98.49-11.84.76-25.58,3.34-30.54,5.83c-3.64,8.38-10.18,14.02-18.8,16.24-16.3,4.21-40.11,2.16-47.11-15.24l-10.03-2.67c-33.64-6.94-63.06-10.66-97.61-8.2-15.58,1.11-30.52,3.07-45.68,6.46l-17.35,3.88,13.82-181.35,19.11-4.95-2.6,43.88-.66,10.93-.6,10.47-.68,11-.73,11.26-1.12,17.3-.67,10.31-.52,6.8-1.17,17.94-1.42,17.56,15.34-2.71,13.87-1.6,11.68-.71,19.99-.06,14.59.88c16.79,1.01,32.8,4.28,48.96,8.32l18.51,4.63c-1.85-1.86-3.25-2.78-5.33-3.87-23.27-12.08-48.69-19.09-74.77-21.31l-5.87-.37-10.46-.37-19.3.56-7.62.68-4.19.45c-1.68.18-3.21.29-4.81.1l8.37-144.26,1.04-17.88c24.46-3.07,48.55.22,66.22,19.1-11.85-2.62-22.53-6.13-34.07-6.57l-15.12-.58-3.15,51.96-.5,8.21-.52,11.27-2.18,40.21-1.25,18.9,25.47-.39c27.52,1.36,54.17,8.24,78.44,22.37l6,3.73,5.02,2.87,9.02,5.59,6.03,2.88c1.94-1.57,3.54-3.64,4.66-5.81,13.57-26.16,5.52-49.83-2.89-76.53-4.22-13.39-5.46-26.88-6.3-40.86-.46-7.83-2.98-15.07-7.81-21.13l-4.59-3.66c-7.46,1.02-14.29.81-20.57-1.17l-.62-.2c-5.23-1.76-10.07-4.77-14.58-9.35l-4.1-4.16c-8.64-10.38-13.48-23.29-15.03-37.23,18.03-6.18,37.14-2.85,50.22,11.6,8.17,9.02,12.69,22.64,9.98,34.7,3.3,2.59,5.93,5.34,9.12,9.2l2.39-17.99c1.13-8.49,5.54-15.94,7.82-23.93.55-8.96-4.66-17.72-8.13-25.53l-7.99.08c-32.92-4.34-53.35-43.68-49.18-77.33,9.27.69,18.17,1.97,26.85,5.34,23.39,9.1,40.65,29.61,39.33,56.2l-1.85,10.86,7.18,15.01c4.63-12.64,10.4-23.77,17.53-35.05-17.04-28-10.01-61.76,12.26-84.36,9.22-9.34,19.9-16.79,31.91-21.79l22.47-7.5c3.41,11.67,5.11,22.88,6,34.78l-.57,11.99c-1.07,22.42-11.2,45.4-28.9,58.78-10.23,7.73-24.18,12.64-36.9,12.04-4.98,10.27-8.73,20.82-11.39,31.3,11.38-10.08,24.47-15.91,39.4-14.57l-6.57,3.06c-2.33,1.09-4.14,1.95-6.19,3.29-9.01,5.89-16.93,12.39-23.45,21.17-8.18,11.01-12.71,23.61-13.78,37.46l-.87,11.14,5.83-6.6,4.51-4.37c4.55-4.41,10.32-6.72,16.41-9.14.54-9.16,3.62-17.08,8.92-24.22,9.12-12.28,22.59-18.87,37.53-20.15,9.83-.85,21.41,1.68,30.94,5.79-1.49,10.53-5.6,19.95-12.06,28.31-7.58,9.8-17.56,16.61-28.48,19.66l-.1.03c-10.75,2.98-22.4,2.33-33.59-2.66-3.61,1.62-6.48,4.27-9.56,6.99-10.95,9.68-16.62,23.53-18.02,38.42-.88,9.34,1.59,19.79,4.51,29,6.53,20.66,10.65,41.47,13.64,62.95.79,5.69,3.3,14.49,7.49,15.98,11.43-8.13,22.18-15.58,34.71-21.37,28.64-13.22,59.71-18.17,91-15.52l-4.1-54.56-4.6-66.12-.79-10.04-12.28.7-7.61.62c-9.51.76-18.33,4.15-27.67,6.48,10.95-12.51,25.78-18.48,41.38-19.98l23.15.15,1.41,17.57.12,1.49.67,9.45.61,9.68.52,8.1.75,9.5.61,7.89.69,10.17,1.06,14.74.76,8.69.7,9.66,2.33,30.78.74,8.9.64,7.15.8,8.81-15.47-1.22-6.32-.39h-21.71l-7.6.55-8.61.75c-17.26,1.49-41.14,7.76-56.71,15.53-4.5,2.25-9.31,3.73-12.91,8.11,18.46-5.56,36.11-9.52,54.76-11.75l9.76-.78,10.62-.69,21.54.11c14.83.07,29.28,1.68,44.09,4.96l-4.22-40.27-2.91-30.35-2.55-27.74-.79-10.01-2.71-33.77-.7-9.04-.37-6.31,19.02,5.83,12.8,124.02,2.45,22.93,3.1,27.07Z"/>
    <path class="cls-2" d="M311.02,251.6c-25.75,1.35-50.66,7.79-72.65,20.64l-10.58,6.18c7.46-11.66,24.92-20.63,38.25-24.54,16.53-4.83,33.42-6.74,50.54-5.63,3.25.22,5.85.74,9.22,1.87-2.84,1.15-4.99.96-7.73,1.1l-7.05.38Z"/>
    <path class="cls-2" d="M242.7,306.27c18.67-12.66,46.86-18.76,69.33-18.2,7.48.19,14.55-.14,22.29,2.2-2.04,1.38-4.66.86-7.28,1.01l-16.89.99-5.08.47-4.49.78c-18.05,3.14-41.31,9.73-57.25,18.56l-19.12,10.59c2.55-4.89,6.74-8.42,11.34-11.54l7.15-4.86Z"/>
    <path class="cls-2" d="M261.33,222.79c-13.3,4.74-25.53,10.67-37.12,18.23.48-1.89,1.3-2.86,2.48-4.06,7.62-7.81,16.81-13.77,27.48-17.86,22.67-8.69,47.72-10.61,72.03-6.45-5.06,1.47-9.91,1.15-14.92,1.39-13.8.67-26.99,2.5-40.26,5.84l-9.69,2.91Z"/>
    <path class="cls-2" d="M161.21,306.24c5.71,3.75,11.09,7.67,14.74,13.48l-5.33-3.4-13.33-7.32c-23.13-10.93-47.82-17-73.23-18.13l-11.61-.87c6.55-2.47,12.68-2.34,19.33-2.47,11.13-.21,21.77.74,32.59,3.41,13.06,3.21,25.5,7.86,36.84,15.3Z"/>
    <path class="cls-2" d="M122.89,211.4c8.28,2.02,15.69,5.48,23.24,9.48,6.7,4.3,13.03,8.98,17.68,16.61-7.72-4.99-15.17-10.15-23.75-13.98-16.25-7.26-33.05-11.35-50.72-12.39l-10.98-1.17c3.29-1.11,6.07-2.01,9.13-1.99l14.34.06c7.21.03,14.01,1.65,21.06,3.38Z"/>
    <path class="cls-2" d="M87.51,246.25c17.39-1.15,34.76,1.65,51.1,8.2,10.92,4.37,21.18,10.67,28.51,20.73-20.78-13.83-43-22.45-67.52-25.03l-14.94-1.22-7.26-.55c3.45-1.42,6.54-1.9,10.11-2.13Z"/>
  </g>
</svg>