<?xml version="1.0" encoding="UTF-8"?>
<svg id="Layer_2" data-name="Layer 2" xmlns="http://www.w3.org/2000/svg" viewBox="0 0 405.43 395.05">
  <defs>
    <style>
      .cls-1 {
        fill: #7bb940;
      }
    </style>
  </defs>
  <g id="Layer_5" data-name="Layer 5">
    <g id="_1x1_blue" data-name="1x1 blue">
      <path class="cls-1" d="M236.58,376.95c-3.65,8.37-10.18,14.01-18.81,16.24-16.29,4.2-40.11,2.15-47.11-15.24l-10.03-2.67c-33.63-6.94-63.06-10.66-97.6-8.2-15.58,1.11-30.53,3.06-45.69,6.45l-17.34,3.88,13.81-181.35,19.11-4.95-2.59,43.88-.66,10.93-.6,10.47-.68,11-.73,11.26-1.12,17.3-.67,10.31-.53,6.8-1.16,17.94-1.43,17.55,15.34-2.71,13.87-1.6,11.68-.71,19.99-.06,14.59.88c16.79,1.01,32.8,4.28,48.96,8.32l18.51,4.63c-1.84-1.86-3.24-2.78-5.33-3.86-23.26-12.08-48.69-19.09-74.77-21.31l-5.86-.37-10.47-.37-19.3.56-7.62.67-4.19.45c-1.68.18-3.2.29-4.8.11l9.4-162.14c24.47-3.07,48.55.22,66.22,19.1-11.85-2.62-22.53-6.13-34.07-6.57l-15.13-.58-3.15,51.96-.49,8.21-.53,11.27-2.17,40.21-1.25,18.9,25.47-.39c27.52,1.36,54.17,8.24,78.44,22.37l6,3.73,5.02,2.87,9.02,5.59,6.03,2.88c1.94-1.58,3.54-3.64,4.67-5.81,13.57-26.17,5.51-49.83-2.89-76.54-4.22-13.39-5.46-26.88-6.29-40.86-.47-7.83-2.98-15.07-7.81-21.12l-4.59-3.67c-13.95,1.91-25.68-.46-35.77-10.71l-4.1-4.17c-8.63-10.38-13.48-23.28-15.02-37.23,18.02-6.18,37.13-2.85,50.22,11.6,8.17,9.02,12.69,22.65,9.98,34.7,3.3,2.59,5.93,5.34,9.12,9.2l2.4-17.99c1.13-8.49,5.54-15.95,7.82-23.93.55-8.96-4.66-17.71-8.13-25.53l-7.99.08c-32.93-4.33-53.35-43.68-49.18-77.33,9.27.69,18.16,1.97,26.85,5.34,23.39,9.09,40.65,29.61,39.33,56.2l-1.85,10.86,7.17,15.01c4.63-12.64,10.4-23.78,17.54-35.05-17.04-28-10.02-61.76,12.26-84.36,9.21-9.34,19.9-16.79,31.91-21.79l22.47-7.5c3.41,11.67,5.11,22.89,6,34.78l-.57,11.99c-1.07,22.42-11.2,45.4-28.89,58.78-10.23,7.74-24.18,12.64-36.9,12.04-4.98,10.27-8.73,20.81-11.39,31.3,11.38-10.08,24.47-15.92,39.41-14.57l-6.58,3.06c-2.32,1.08-4.13,1.95-6.18,3.29-9.01,5.88-16.93,12.39-23.45,21.17-8.18,11.01-12.71,23.61-13.78,37.46l-.86,11.14,5.83-6.6,4.51-4.37c4.55-4.41,10.32-6.72,16.41-9.14.54-9.15,3.62-17.08,8.92-24.21,9.12-12.28,22.59-18.87,37.53-20.16,9.83-.85,21.41,1.68,30.94,5.79-1.49,10.53-5.6,19.95-12.06,28.31-15.06,19.47-39.56,27.12-62.17,17.03-3.61,1.62-6.47,4.27-9.55,6.99-10.96,9.68-16.62,23.53-18.02,38.43-.88,9.33,1.59,19.79,4.5,29,6.53,20.66,10.66,41.47,13.64,62.95.79,5.69,3.3,14.48,7.49,15.98,11.43-8.14,22.18-15.59,34.71-21.37,28.64-13.22,59.71-18.18,91-15.52l-4.1-54.56-4.59-66.12-.8-10.05-12.27.7-7.61.61c-9.51.77-18.33,4.15-27.67,6.49,10.94-12.51,25.77-18.48,41.37-19.98l23.16.15,1.52,19.06.67,9.45.61,9.68.52,8.1.75,9.5.6,7.9.69,10.16,1.06,14.74.77,8.69.7,9.66,2.33,30.77.74,8.91.64,7.14.8,8.81-15.46-1.22-6.33-.39h-21.7s-7.61.55-7.61.55l-8.6.74c-17.26,1.49-41.14,7.76-56.71,15.54-4.5,2.25-9.31,3.73-12.91,8.11,18.46-5.56,36.11-9.52,54.76-11.75l9.75-.78,10.63-.69,21.54.1c14.83.07,29.27,1.68,44.08,4.96l-4.22-40.27-2.91-30.35-2.54-27.74-.79-10.01-2.71-33.77-.7-9.04-.37-6.31,19.02,5.83,12.8,124.02,2.45,22.93,3.1,27.07.27,6.64c-30.9-8.16-62.11-12.07-93.91-11.03l-6.97.48-11.84.77-25.58,3.33-30.54,5.84Z"/>
      <path class="cls-1" d="M261.33,222.79c-13.3,4.74-25.53,10.67-37.12,18.24.47-1.9,1.3-2.86,2.47-4.07,7.62-7.81,16.81-13.77,27.48-17.86,22.67-8.69,47.73-10.61,72.04-6.45-5.06,1.47-9.91,1.16-14.92,1.4-13.8.67-27,2.5-40.26,5.84l-9.69,2.91Z"/>
      <path class="cls-1" d="M311.01,251.6c-25.75,1.36-50.66,7.8-72.65,20.65l-10.58,6.18c7.46-11.67,24.92-20.64,38.25-24.54,16.53-4.84,33.42-6.75,50.54-5.63,3.25.21,5.85.73,9.23,1.87-2.85,1.14-4.99.96-7.74,1.1l-7.05.37Z"/>
      <path class="cls-1" d="M163.8,237.49c-7.72-4.99-15.17-10.15-23.74-13.98-16.25-7.26-33.05-11.35-50.72-12.39l-10.98-1.17c3.29-1.11,6.07-2.01,9.13-1.99l14.33.06c7.22.03,14.02,1.66,21.06,3.38,8.28,2.03,15.69,5.48,23.24,9.48,6.7,4.3,13.03,8.98,17.67,16.61Z"/>
      <path class="cls-1" d="M300.58,293.53c-18.06,3.14-41.31,9.73-57.26,18.56l-19.12,10.59c2.54-4.89,6.73-8.42,11.34-11.54l7.15-4.85c18.67-12.67,46.85-18.76,69.33-18.2,7.48.19,14.55-.14,22.29,2.2-2.03,1.38-4.65.86-7.28,1.01l-16.89.99-5.08.47-4.49.78Z"/>
      <path class="cls-1" d="M99.59,250.15l-14.94-1.22-7.26-.55c3.45-1.43,6.54-1.9,10.1-2.13,17.4-1.15,34.76,1.65,51.1,8.2,10.92,4.38,21.19,10.67,28.51,20.73-20.78-13.83-43-22.45-67.52-25.03Z"/>
      <path class="cls-1" d="M170.61,316.32l-13.32-7.32c-23.14-10.93-47.82-17-73.23-18.13l-11.61-.87c6.54-2.47,12.67-2.34,19.32-2.47,11.13-.21,21.77.74,32.6,3.4,13.06,3.21,25.5,7.86,36.84,15.31,5.71,3.75,11.09,7.67,14.74,13.48l-5.34-3.4Z"/>
    </g>
  </g>
</svg>
